<svg width="25" height="25" viewBox="0 0 25 25" fill="none" xmlns="http://www.w3.org/2000/svg">
<g id="logo">
<path id="vector" d="M22.9014 12.7332C22.9014 11.8699 22.8299 11.2399 22.6752 10.5865H12.6157V14.4832H18.5204C18.4014 15.4515 17.7586 16.9099 16.33 17.8898L16.31 18.0203L19.4906 20.435L19.7109 20.4565C21.7347 18.6249 22.9014 15.9298 22.9014 12.7332Z" fill="#4285F4"/>
<path id="vector_2" d="M12.6144 23C15.5072 23 17.9357 22.0666 19.7096 20.4567L16.3286 17.8899C15.4239 18.5083 14.2096 18.9399 12.6144 18.9399C9.78108 18.9399 7.37635 17.1083 6.51913 14.5766L6.39348 14.5871L3.08622 17.0954L3.04297 17.2132C4.80485 20.6433 8.42389 23 12.6144 23Z" fill="#34A853"/>
<path id="vector_3" d="M6.52085 14.5767C6.29467 13.9234 6.16376 13.2233 6.16376 12.5C6.16376 11.7767 6.29467 11.0767 6.50895 10.4234L6.50296 10.2842L3.15425 7.7356L3.04468 7.78667C2.31853 9.21002 1.90186 10.8084 1.90186 12.5C1.90186 14.1917 2.31853 15.79 3.04468 17.2133L6.52085 14.5767Z" fill="#FBBC05"/>
<path id="vector_4" d="M12.6144 6.05997C14.6263 6.05997 15.9834 6.91163 16.7573 7.62335L19.7811 4.73C17.924 3.03834 15.5073 2 12.6144 2C8.42392 2 4.80486 4.35665 3.04297 7.78662L6.50725 10.4233C7.37637 7.89166 9.78112 6.05997 12.6144 6.05997Z" fill="#EB4335"/>
</g>
</svg>
